<svg xmlns="http://www.w3.org/2000/svg" width="1440" height="820" viewBox="0 0 1440 820" role="img" aria-labelledby="title desc">
<title id="title">ReqBro Assist architecture</title><desc id="desc">Browser request flows through FastAPI redaction, Moss retrieval, evidence validation, OpenAI explanation and response validation.</desc>
<defs><linearGradient id="bg" x2="1" y2="1"><stop stop-color="#06101b"/><stop offset="1" stop-color="#0b2032"/></linearGradient><linearGradient id="accent"><stop stop-color="#57d9ff"/><stop offset="1" stop-color="#adf56f"/></linearGradient><filter id="glow"><feGaussianBlur stdDeviation="8" result="b"/><feMerge><feMergeNode in="b"/><feMergeNode in="SourceGraphic"/></feMerge></filter><marker id="arrow" markerWidth="12" markerHeight="12" refX="10" refY="6" orient="auto"><path d="M0 0l12 6-12 6z" fill="#57d9ff"/></marker></defs>
<rect width="1440" height="820" rx="32" fill="url(#bg)"/><text x="70" y="82" fill="#f4f9fc" font-family="Arial" font-size="38" font-weight="700">ReqBro Assist</text><text x="70" y="116" fill="#8eabc0" font-family="monospace" font-size="16">EVIDENCE-GROUNDED API DEBUGGING PIPELINE</text>
<g font-family="Arial" text-anchor="middle"><g fill="#102b42" stroke="#2d6079" stroke-width="2"><rect x="55" y="270" width="190" height="170" rx="22"/><rect x="310" y="270" width="190" height="170" rx="22"/><rect x="565" y="270" width="190" height="170" rx="22"/><rect x="820" y="270" width="190" height="170" rx="22"/><rect x="1075" y="270" width="300" height="170" rx="22"/></g>
<g fill="#f4f9fc" font-size="22" font-weight="700"><text x="150" y="326">Browser UI</text><text x="405" y="326">Redaction</text><text x="660" y="326">Moss</text><text x="915" y="326">Evidence gate</text><text x="1225" y="326">OpenAI + validator</text></g>
<g fill="#9eb8c8" font-size="15"><text x="150" y="360">Failed request</text><text x="150" y="384">Synthetic examples</text><text x="150" y="408">Result console</text><text x="405" y="360">Headers · JSON</text><text x="405" y="384">URLs · tokens</text><text x="405" y="408">Before providers</text><text x="660" y="360">19 curated notes</text><text x="660" y="384">Top-5 retrieval</text><text x="660" y="408">Measured latency</text><text x="915" y="360">Trusted text only</text><text x="915" y="384">Signal matching</text><text x="915" y="408">Abstain if weak</text><text x="1225" y="360">gpt-4o-mini</text><text x="1225" y="384">Strict JSON schema</text><text x="1225" y="408">Citation validation</text></g></g>
<g stroke="#57d9ff" stroke-width="3" marker-end="url(#arrow)" filter="url(#glow)"><path d="M245 355h55"/><path d="M500 355h55"/><path d="M755 355h55"/><path d="M1010 355h55"/></g>
<rect x="250" y="570" width="940" height="130" rx="24" fill="#0b1d2c" stroke="#29475a"/><text x="720" y="618" text-anchor="middle" fill="url(#accent)" font-family="Arial" font-size="25" font-weight="700">One Railway service · one public URL · no application database</text><text x="720" y="658" text-anchor="middle" fill="#9eb8c8" font-family="Arial" font-size="17">Static interface + FastAPI · secrets remain server-side · suggested fixes require human review</text>
</svg>
